<mxfile host="app.diagrams.net" modified="2023-08-30T07:53:36.244Z" agent="Mozilla/5.0 (Windows NT 10.0; Win64; x64) AppleWebKit/537.36 (KHTML, like Gecko) Chrome/116.0.0.0 Safari/537.36" etag="zE9IUtiIMJGtBwWSpfW0" version="21.7.0" type="github">
  <diagram name="페이지-1" id="oQ_E0A7s6T6FkY0RD8KC">
    <mxGraphModel dx="1050" dy="574" grid="1" gridSize="10" guides="1" tooltips="1" connect="1" arrows="1" fold="1" page="1" pageScale="1" pageWidth="1100" pageHeight="850" math="0" shadow="0">
      <root>
        <mxCell id="0" />
        <mxCell id="1" parent="0" />
        <mxCell id="wfGHzyT16Ka-MV8CcUUe-1" value="시작" style="html=1;dashed=0;whiteSpace=wrap;shape=mxgraph.dfd.start" vertex="1" parent="1">
          <mxGeometry x="400" y="50" width="80" height="30" as="geometry" />
        </mxCell>
        <mxCell id="wfGHzyT16Ka-MV8CcUUe-3" value="" style="rounded=0;whiteSpace=wrap;html=1;" vertex="1" parent="1">
          <mxGeometry x="240" y="160" width="410" height="430" as="geometry" />
        </mxCell>
        <mxCell id="wfGHzyT16Ka-MV8CcUUe-2" value="stop" style="rounded=0;whiteSpace=wrap;html=1;" vertex="1" parent="1">
          <mxGeometry x="400" y="140" width="80" height="30" as="geometry" />
        </mxCell>
        <mxCell id="wfGHzyT16Ka-MV8CcUUe-5" value="" style="endArrow=classic;html=1;rounded=0;exitX=0.5;exitY=0.5;exitDx=0;exitDy=15;exitPerimeter=0;entryX=0.5;entryY=0;entryDx=0;entryDy=0;" edge="1" parent="1" source="wfGHzyT16Ka-MV8CcUUe-1" target="wfGHzyT16Ka-MV8CcUUe-2">
          <mxGeometry width="50" height="50" relative="1" as="geometry">
            <mxPoint x="530" y="110" as="sourcePoint" />
            <mxPoint x="580" y="60" as="targetPoint" />
          </mxGeometry>
        </mxCell>
        <mxCell id="wfGHzyT16Ka-MV8CcUUe-6" value="gsensor x,y,z값을 읽어옴" style="shape=ext;double=1;rounded=0;whiteSpace=wrap;html=1;fillColor=default;" vertex="1" parent="1">
          <mxGeometry x="355" y="210" width="170" height="50" as="geometry" />
        </mxCell>
        <mxCell id="wfGHzyT16Ka-MV8CcUUe-7" value="읽은 센서값으로 임계값 만듦&lt;br&gt;(2초마다 임계값 생성)" style="shape=ext;double=1;rounded=0;whiteSpace=wrap;html=1;" vertex="1" parent="1">
          <mxGeometry x="355" y="290" width="170" height="50" as="geometry" />
        </mxCell>
        <mxCell id="wfGHzyT16Ka-MV8CcUUe-8" value="평균값 생성" style="shape=ext;double=1;rounded=0;whiteSpace=wrap;html=1;" vertex="1" parent="1">
          <mxGeometry x="355" y="370" width="170" height="50" as="geometry" />
        </mxCell>
        <mxCell id="wfGHzyT16Ka-MV8CcUUe-9" value="읽어온 센서값이 임계값을 넘는가?" style="rhombus;whiteSpace=wrap;html=1;" vertex="1" parent="1">
          <mxGeometry x="314.75" y="460" width="252.5" height="80" as="geometry" />
        </mxCell>
        <mxCell id="wfGHzyT16Ka-MV8CcUUe-11" value="" style="endArrow=classic;html=1;rounded=0;exitX=0;exitY=0.5;exitDx=0;exitDy=0;entryX=0;entryY=0.5;entryDx=0;entryDy=0;" edge="1" parent="1" source="wfGHzyT16Ka-MV8CcUUe-9" target="wfGHzyT16Ka-MV8CcUUe-6">
          <mxGeometry width="50" height="50" relative="1" as="geometry">
            <mxPoint x="310" y="470" as="sourcePoint" />
            <mxPoint x="360" y="420" as="targetPoint" />
            <Array as="points">
              <mxPoint x="290" y="500" />
              <mxPoint x="290" y="235" />
            </Array>
          </mxGeometry>
        </mxCell>
        <mxCell id="wfGHzyT16Ka-MV8CcUUe-12" value="no" style="text;html=1;strokeColor=none;fillColor=none;align=center;verticalAlign=middle;whiteSpace=wrap;rounded=0;" vertex="1" parent="1">
          <mxGeometry x="280" y="470" width="60" height="30" as="geometry" />
        </mxCell>
        <mxCell id="wfGHzyT16Ka-MV8CcUUe-15" value="" style="rounded=0;whiteSpace=wrap;html=1;" vertex="1" parent="1">
          <mxGeometry x="240" y="680" width="410" height="770" as="geometry" />
        </mxCell>
        <mxCell id="wfGHzyT16Ka-MV8CcUUe-16" value="driving" style="rounded=0;whiteSpace=wrap;html=1;" vertex="1" parent="1">
          <mxGeometry x="400" y="660" width="80" height="30" as="geometry" />
        </mxCell>
        <mxCell id="wfGHzyT16Ka-MV8CcUUe-17" value="" style="endArrow=classic;html=1;rounded=0;exitX=0.5;exitY=1;exitDx=0;exitDy=0;" edge="1" parent="1" source="wfGHzyT16Ka-MV8CcUUe-9">
          <mxGeometry width="50" height="50" relative="1" as="geometry">
            <mxPoint x="520" y="580" as="sourcePoint" />
            <mxPoint x="440" y="660" as="targetPoint" />
          </mxGeometry>
        </mxCell>
        <mxCell id="wfGHzyT16Ka-MV8CcUUe-18" value="" style="endArrow=classic;html=1;rounded=0;exitX=0.5;exitY=1;exitDx=0;exitDy=0;entryX=0.5;entryY=0;entryDx=0;entryDy=0;" edge="1" parent="1" source="wfGHzyT16Ka-MV8CcUUe-6" target="wfGHzyT16Ka-MV8CcUUe-7">
          <mxGeometry width="50" height="50" relative="1" as="geometry">
            <mxPoint x="600" y="290" as="sourcePoint" />
            <mxPoint x="650" y="240" as="targetPoint" />
          </mxGeometry>
        </mxCell>
        <mxCell id="wfGHzyT16Ka-MV8CcUUe-19" value="" style="endArrow=classic;html=1;rounded=0;exitX=0.5;exitY=1;exitDx=0;exitDy=0;" edge="1" parent="1" source="wfGHzyT16Ka-MV8CcUUe-7" target="wfGHzyT16Ka-MV8CcUUe-8">
          <mxGeometry width="50" height="50" relative="1" as="geometry">
            <mxPoint x="560" y="320" as="sourcePoint" />
            <mxPoint x="610" y="270" as="targetPoint" />
          </mxGeometry>
        </mxCell>
        <mxCell id="wfGHzyT16Ka-MV8CcUUe-20" value="" style="endArrow=classic;html=1;rounded=0;exitX=0.5;exitY=1;exitDx=0;exitDy=0;entryX=0.5;entryY=0;entryDx=0;entryDy=0;" edge="1" parent="1" source="wfGHzyT16Ka-MV8CcUUe-8" target="wfGHzyT16Ka-MV8CcUUe-9">
          <mxGeometry width="50" height="50" relative="1" as="geometry">
            <mxPoint x="560" y="460" as="sourcePoint" />
            <mxPoint x="610" y="410" as="targetPoint" />
          </mxGeometry>
        </mxCell>
        <mxCell id="wfGHzyT16Ka-MV8CcUUe-23" value="gsensor x,y,z값을 읽어옴" style="shape=ext;double=1;rounded=0;whiteSpace=wrap;html=1;" vertex="1" parent="1">
          <mxGeometry x="355" y="720" width="170" height="50" as="geometry" />
        </mxCell>
        <mxCell id="wfGHzyT16Ka-MV8CcUUe-24" value="읽어온 센서값이 임계값을 넘는가?" style="rhombus;whiteSpace=wrap;html=1;" vertex="1" parent="1">
          <mxGeometry x="313.75" y="900" width="252.5" height="80" as="geometry" />
        </mxCell>
        <mxCell id="wfGHzyT16Ka-MV8CcUUe-25" value="평균값 생성" style="shape=ext;double=1;rounded=0;whiteSpace=wrap;html=1;" vertex="1" parent="1">
          <mxGeometry x="355" y="800" width="170" height="50" as="geometry" />
        </mxCell>
        <mxCell id="wfGHzyT16Ka-MV8CcUUe-26" value="" style="endArrow=classic;html=1;rounded=0;exitX=0;exitY=0.5;exitDx=0;exitDy=0;entryX=0;entryY=0.25;entryDx=0;entryDy=0;" edge="1" parent="1" source="wfGHzyT16Ka-MV8CcUUe-24" target="wfGHzyT16Ka-MV8CcUUe-2">
          <mxGeometry width="50" height="50" relative="1" as="geometry">
            <mxPoint x="340" y="920" as="sourcePoint" />
            <mxPoint x="390" y="870" as="targetPoint" />
            <Array as="points">
              <mxPoint x="290" y="940" />
              <mxPoint x="150" y="940" />
              <mxPoint x="150" y="148" />
            </Array>
          </mxGeometry>
        </mxCell>
        <mxCell id="wfGHzyT16Ka-MV8CcUUe-27" value="yes" style="text;html=1;strokeColor=none;fillColor=none;align=center;verticalAlign=middle;whiteSpace=wrap;rounded=0;" vertex="1" parent="1">
          <mxGeometry x="280" y="910" width="60" height="30" as="geometry" />
        </mxCell>
        <mxCell id="wfGHzyT16Ka-MV8CcUUe-28" value="" style="endArrow=classic;html=1;rounded=0;exitX=0.5;exitY=1;exitDx=0;exitDy=0;" edge="1" parent="1" source="wfGHzyT16Ka-MV8CcUUe-23" target="wfGHzyT16Ka-MV8CcUUe-25">
          <mxGeometry width="50" height="50" relative="1" as="geometry">
            <mxPoint x="570" y="800" as="sourcePoint" />
            <mxPoint x="620" y="750" as="targetPoint" />
          </mxGeometry>
        </mxCell>
        <mxCell id="wfGHzyT16Ka-MV8CcUUe-29" value="" style="endArrow=classic;html=1;rounded=0;exitX=0.5;exitY=1;exitDx=0;exitDy=0;entryX=0.5;entryY=0;entryDx=0;entryDy=0;" edge="1" parent="1" source="wfGHzyT16Ka-MV8CcUUe-25" target="wfGHzyT16Ka-MV8CcUUe-24">
          <mxGeometry width="50" height="50" relative="1" as="geometry">
            <mxPoint x="560" y="870" as="sourcePoint" />
            <mxPoint x="610" y="820" as="targetPoint" />
          </mxGeometry>
        </mxCell>
        <mxCell id="wfGHzyT16Ka-MV8CcUUe-30" value="yes" style="text;html=1;strokeColor=none;fillColor=none;align=center;verticalAlign=middle;whiteSpace=wrap;rounded=0;" vertex="1" parent="1">
          <mxGeometry x="440" y="540" width="60" height="30" as="geometry" />
        </mxCell>
        <mxCell id="wfGHzyT16Ka-MV8CcUUe-31" value="읽은 센서값의 절댓값 &amp;lt; 임계값(15) + 평균값 절댓값" style="rhombus;whiteSpace=wrap;html=1;" vertex="1" parent="1">
          <mxGeometry x="267.38" y="1020" width="345.25" height="80" as="geometry" />
        </mxCell>
        <mxCell id="wfGHzyT16Ka-MV8CcUUe-33" value="진동수 증가" style="shape=ext;double=1;rounded=0;whiteSpace=wrap;html=1;" vertex="1" parent="1">
          <mxGeometry x="373" y="1130" width="134" height="30" as="geometry" />
        </mxCell>
        <mxCell id="wfGHzyT16Ka-MV8CcUUe-34" value="10회 넘게 진동수 확인을 했는가?" style="rhombus;whiteSpace=wrap;html=1;fontStyle=1" vertex="1" parent="1">
          <mxGeometry x="313.75" y="1190" width="252.5" height="70" as="geometry" />
        </mxCell>
        <mxCell id="wfGHzyT16Ka-MV8CcUUe-35" value="" style="endArrow=classic;html=1;rounded=0;exitX=0;exitY=0.5;exitDx=0;exitDy=0;entryX=0;entryY=0.5;entryDx=0;entryDy=0;" edge="1" parent="1" source="wfGHzyT16Ka-MV8CcUUe-34" target="wfGHzyT16Ka-MV8CcUUe-31">
          <mxGeometry width="50" height="50" relative="1" as="geometry">
            <mxPoint x="580" y="1160" as="sourcePoint" />
            <mxPoint x="630" y="1110" as="targetPoint" />
            <Array as="points">
              <mxPoint x="220" y="1225" />
              <mxPoint x="220" y="1060" />
            </Array>
          </mxGeometry>
        </mxCell>
        <mxCell id="wfGHzyT16Ka-MV8CcUUe-36" value="no" style="text;html=1;strokeColor=none;fillColor=none;align=center;verticalAlign=middle;whiteSpace=wrap;rounded=0;" vertex="1" parent="1">
          <mxGeometry x="270" y="1200" width="60" height="30" as="geometry" />
        </mxCell>
        <mxCell id="wfGHzyT16Ka-MV8CcUUe-37" value="" style="endArrow=classic;html=1;rounded=0;exitX=0.5;exitY=1;exitDx=0;exitDy=0;entryX=0.5;entryY=0;entryDx=0;entryDy=0;" edge="1" parent="1" source="wfGHzyT16Ka-MV8CcUUe-24" target="wfGHzyT16Ka-MV8CcUUe-31">
          <mxGeometry width="50" height="50" relative="1" as="geometry">
            <mxPoint x="570" y="990" as="sourcePoint" />
            <mxPoint x="620" y="940" as="targetPoint" />
          </mxGeometry>
        </mxCell>
        <mxCell id="wfGHzyT16Ka-MV8CcUUe-38" value="no" style="text;html=1;strokeColor=none;fillColor=none;align=center;verticalAlign=middle;whiteSpace=wrap;rounded=0;" vertex="1" parent="1">
          <mxGeometry x="430" y="980" width="60" height="30" as="geometry" />
        </mxCell>
        <mxCell id="wfGHzyT16Ka-MV8CcUUe-39" value="" style="endArrow=classic;html=1;rounded=0;exitX=0.5;exitY=1;exitDx=0;exitDy=0;entryX=0.5;entryY=0;entryDx=0;entryDy=0;" edge="1" parent="1" source="wfGHzyT16Ka-MV8CcUUe-31" target="wfGHzyT16Ka-MV8CcUUe-33">
          <mxGeometry width="50" height="50" relative="1" as="geometry">
            <mxPoint x="580" y="1130" as="sourcePoint" />
            <mxPoint x="630" y="1080" as="targetPoint" />
          </mxGeometry>
        </mxCell>
        <mxCell id="wfGHzyT16Ka-MV8CcUUe-40" value="" style="endArrow=classic;html=1;rounded=0;exitX=0.5;exitY=1;exitDx=0;exitDy=0;entryX=0.5;entryY=0;entryDx=0;entryDy=0;" edge="1" parent="1" source="wfGHzyT16Ka-MV8CcUUe-33" target="wfGHzyT16Ka-MV8CcUUe-34">
          <mxGeometry width="50" height="50" relative="1" as="geometry">
            <mxPoint x="540" y="1150" as="sourcePoint" />
            <mxPoint x="590" y="1100" as="targetPoint" />
          </mxGeometry>
        </mxCell>
        <mxCell id="wfGHzyT16Ka-MV8CcUUe-41" value="yes" style="text;html=1;strokeColor=none;fillColor=none;align=center;verticalAlign=middle;whiteSpace=wrap;rounded=0;" vertex="1" parent="1">
          <mxGeometry x="440" y="1100" width="60" height="30" as="geometry" />
        </mxCell>
        <mxCell id="wfGHzyT16Ka-MV8CcUUe-42" value="" style="endArrow=classic;html=1;rounded=0;exitX=1;exitY=0.5;exitDx=0;exitDy=0;entryX=1;entryY=0.5;entryDx=0;entryDy=0;" edge="1" parent="1" source="wfGHzyT16Ka-MV8CcUUe-31" target="wfGHzyT16Ka-MV8CcUUe-34">
          <mxGeometry width="50" height="50" relative="1" as="geometry">
            <mxPoint x="560" y="1130" as="sourcePoint" />
            <mxPoint x="610" y="1080" as="targetPoint" />
            <Array as="points">
              <mxPoint x="690" y="1060" />
              <mxPoint x="690" y="1225" />
            </Array>
          </mxGeometry>
        </mxCell>
        <mxCell id="wfGHzyT16Ka-MV8CcUUe-43" value="no" style="text;html=1;strokeColor=none;fillColor=none;align=center;verticalAlign=middle;whiteSpace=wrap;rounded=0;" vertex="1" parent="1">
          <mxGeometry x="590" y="1030" width="60" height="30" as="geometry" />
        </mxCell>
        <mxCell id="wfGHzyT16Ka-MV8CcUUe-44" value="진동수가 5 이상인가?" style="rhombus;whiteSpace=wrap;html=1;fontStyle=1" vertex="1" parent="1">
          <mxGeometry x="314.75" y="1300" width="252.5" height="70" as="geometry" />
        </mxCell>
        <mxCell id="wfGHzyT16Ka-MV8CcUUe-45" value="" style="endArrow=classic;html=1;rounded=0;exitX=0.5;exitY=1;exitDx=0;exitDy=0;" edge="1" parent="1" source="wfGHzyT16Ka-MV8CcUUe-34" target="wfGHzyT16Ka-MV8CcUUe-44">
          <mxGeometry width="50" height="50" relative="1" as="geometry">
            <mxPoint x="550" y="1330" as="sourcePoint" />
            <mxPoint x="600" y="1280" as="targetPoint" />
          </mxGeometry>
        </mxCell>
        <mxCell id="wfGHzyT16Ka-MV8CcUUe-46" value="yes" style="text;html=1;strokeColor=none;fillColor=none;align=center;verticalAlign=middle;whiteSpace=wrap;rounded=0;" vertex="1" parent="1">
          <mxGeometry x="430" y="1260" width="60" height="30" as="geometry" />
        </mxCell>
        <mxCell id="wfGHzyT16Ka-MV8CcUUe-47" value="" style="endArrow=classic;html=1;rounded=0;exitX=1;exitY=0.5;exitDx=0;exitDy=0;entryX=1;entryY=0.5;entryDx=0;entryDy=0;" edge="1" parent="1" source="wfGHzyT16Ka-MV8CcUUe-44" target="wfGHzyT16Ka-MV8CcUUe-2">
          <mxGeometry width="50" height="50" relative="1" as="geometry">
            <mxPoint x="590" y="1330" as="sourcePoint" />
            <mxPoint x="640" y="1280" as="targetPoint" />
            <Array as="points">
              <mxPoint x="740" y="1335" />
              <mxPoint x="740" y="155" />
            </Array>
          </mxGeometry>
        </mxCell>
        <mxCell id="wfGHzyT16Ka-MV8CcUUe-48" value="yes" style="text;html=1;strokeColor=none;fillColor=none;align=center;verticalAlign=middle;whiteSpace=wrap;rounded=0;" vertex="1" parent="1">
          <mxGeometry x="566.25" y="1300" width="60" height="30" as="geometry" />
        </mxCell>
        <mxCell id="wfGHzyT16Ka-MV8CcUUe-50" value="" style="endArrow=classic;html=1;rounded=0;exitX=0;exitY=0.5;exitDx=0;exitDy=0;entryX=0;entryY=0.25;entryDx=0;entryDy=0;" edge="1" parent="1" source="wfGHzyT16Ka-MV8CcUUe-44" target="wfGHzyT16Ka-MV8CcUUe-16">
          <mxGeometry width="50" height="50" relative="1" as="geometry">
            <mxPoint x="300" y="1300" as="sourcePoint" />
            <mxPoint x="350" y="1250" as="targetPoint" />
            <Array as="points">
              <mxPoint x="100" y="1335" />
              <mxPoint x="100" y="668" />
            </Array>
          </mxGeometry>
        </mxCell>
        <mxCell id="wfGHzyT16Ka-MV8CcUUe-51" value="no" style="text;html=1;strokeColor=none;fillColor=none;align=center;verticalAlign=middle;whiteSpace=wrap;rounded=0;" vertex="1" parent="1">
          <mxGeometry x="270" y="1300" width="60" height="30" as="geometry" />
        </mxCell>
      </root>
    </mxGraphModel>
  </diagram>
</mxfile>
